<svg width="50" height="50" viewBox="0 0 50 50" fill="none" xmlns="http://www.w3.org/2000/svg">
  <rect width="50" height="50" rx="10" fill="#0D0D0D" />
  <g clip-path="url(#clip0_15650_105)">
    <path d="M25.0215 9.93302C28.1472 13.9011 29.8158 18.7944 29.7553 23.8155V25.0141L30.7865 25.6416C32.119 26.4482 33.1127 27.6993 33.5866 29.1669C33.1705 28.8605 32.7352 28.5803 32.2833 28.3278L29.5333 26.7838L29.0391 29.9001C28.9963 30.1755 28.9389 30.4485 28.8672 30.718H21.1615C21.0469 30.3655 20.9538 30.0129 20.8679 29.6463L20.2448 26.8261L17.7097 28.2362C17.2861 28.473 16.8772 28.7344 16.4851 29.0188C16.9682 27.5682 17.9412 26.3242 19.2422 25.4935L20.2234 24.866V23.7521C20.2411 18.7513 21.9297 13.8952 25.0287 9.93302H25.0215ZM25.0287 7C24.868 7.00039 24.7128 7.05799 24.5918 7.16216L24.5274 7.21857C20.3978 11.7656 18.1047 17.6454 18.0821 23.745C16.3297 24.8643 15.0325 26.5543 14.4173 28.5197C13.802 30.485 13.9078 32.6007 14.7162 34.4971C15.5678 32.6455 16.9913 31.1058 18.7839 30.0975C18.9637 30.8642 19.2031 31.6161 19.5 32.3467C19.5377 32.4871 19.6212 32.6114 19.7376 32.7006C19.8541 32.7898 19.9971 32.8388 20.1446 32.8402H30.0847C30.2852 32.8402 30.4857 32.6498 30.586 32.3537C30.8758 31.6592 31.0778 30.9322 31.1875 30.1892C32.9836 31.1932 34.4083 32.7342 35.2553 34.5887C36.1124 32.7017 36.2451 30.5727 35.6287 28.5967C35.0124 26.6206 33.6888 24.9319 31.9037 23.8437C31.9745 17.7082 29.6935 11.7718 25.5157 7.21857C25.4535 7.15008 25.3773 7.09524 25.2922 7.05759C25.2071 7.01993 25.1149 7.00031 25.0215 7H25.0287Z" fill="#4EA8DE" />
    <path d="M25.0216 23.1598C24.4715 23.1598 23.9338 22.9995 23.4761 22.699C23.0185 22.3986 22.6614 21.9715 22.4499 21.4716C22.2385 20.9716 22.1821 20.4213 22.2878 19.8898C22.3936 19.3584 22.6568 18.8697 23.0442 18.4853C23.4317 18.1009 23.9261 17.838 24.465 17.7298C25.004 17.6216 25.5634 17.6729 26.0728 17.8773C26.5822 18.0816 27.0188 18.4298 27.3275 18.8781C27.6361 19.3263 27.8031 19.8545 27.8074 20.396V20.396C27.8159 20.7469 27.7542 21.0961 27.6256 21.4235C27.4971 21.751 27.3043 22.0503 27.0582 22.3043C26.8121 22.5583 26.5176 22.7622 26.1915 22.9041C25.8654 23.0461 25.5141 23.1234 25.1576 23.1316C25.1126 23.1387 25.0666 23.1387 25.0216 23.1316V23.1598Z" fill="#4EA8DE" />
    <path d="M28.8959 34.5958C28.7167 34.5901 28.5382 34.6198 28.3708 34.683C28.2034 34.7462 28.0505 34.8416 27.9211 34.9638C27.7917 35.086 27.6884 35.2323 27.6172 35.3943C27.546 35.5563 27.5084 35.7307 27.5066 35.9072V40.067C27.5066 40.4297 27.653 40.7776 27.9135 41.0342C28.1741 41.2907 28.5274 41.4348 28.8959 41.4348C29.2644 41.4348 29.6178 41.2907 29.8783 41.0342C30.1389 40.7776 30.2852 40.4297 30.2852 40.067V35.9636C30.291 35.7877 30.2611 35.6126 30.1973 35.4482C30.1336 35.2839 30.0372 35.1337 29.9139 35.0064C29.7906 34.879 29.6428 34.7772 29.4791 34.7067C29.3154 34.6362 29.139 34.5985 28.9604 34.5958H28.8959Z" fill="#5E60CE" />
    <path d="M21.1615 34.5958C20.9793 34.5863 20.797 34.613 20.6255 34.6743C20.4539 34.7356 20.2967 34.8302 20.163 34.9525C20.0294 35.0749 19.9221 35.2225 19.8476 35.3865C19.7731 35.5505 19.7328 35.7275 19.7292 35.9072V40.067C19.7292 40.4297 19.8756 40.7776 20.1362 41.0342C20.3967 41.2907 20.7501 41.4348 21.1186 41.4348C21.487 41.4348 21.8404 41.2907 22.101 41.0342C22.3615 40.7776 22.5079 40.4297 22.5079 40.067V35.9636C22.5136 35.7877 22.4837 35.6126 22.42 35.4482C22.3562 35.2839 22.2599 35.1337 22.1366 35.0064C22.0133 34.879 21.8654 34.7772 21.7017 34.7067C21.538 34.6362 21.3617 34.5985 21.183 34.5958H21.1615Z" fill="#5E60CE" />
    <path d="M24.9213 34.5958C24.7426 34.592 24.5649 34.623 24.3984 34.6869C24.2318 34.7508 24.0797 34.8463 23.9507 34.9681C23.8217 35.0899 23.7183 35.2355 23.6464 35.3966C23.5746 35.5578 23.5357 35.7312 23.532 35.9072V41.6392C23.532 42.002 23.6784 42.3499 23.9389 42.6064C24.1995 42.8629 24.5528 43.0071 24.9213 43.0071C25.2898 43.0071 25.6432 42.8629 25.9037 42.6064C26.1643 42.3499 26.3106 42.002 26.3106 41.6392V35.9988C26.3164 35.823 26.2865 35.6478 26.2227 35.4835C26.159 35.3191 26.0626 35.1689 25.9393 35.0416C25.816 34.9143 25.6682 34.8124 25.5045 34.7419C25.3408 34.6714 25.1644 34.6337 24.9858 34.631L24.9213 34.5958Z" fill="#5E60CE" />
  </g>
  <defs>
    <clipPath id="clip0_15650_105">
      <rect width="22" height="36" fill="white" transform="translate(14 7)" />
    </clipPath>
  </defs>
</svg>